<svg xmlns="http://www.w3.org/2000/svg" viewBox="0 0 45 45"><defs><clipPath id="a"><path d="M4 31a4 4 0 0 1-4-4V9a4 4 0 0 1 4-4h28a4 4 0 0 1 4 4v18a4 4 0 0 1-4 4H4z"/></clipPath></defs><g clip-path="url(#a)" transform="matrix(1.25 0 0 -1.25 0 45)"><path d="M0 31h36V5H0v26z" fill="#039"/><path d="M18.54 26.296l.848.617H18.34l-.325.998-.324-.998h-1.049l.85-.617-.326-.998.85.617.848-.617-.324.998zm0-17.334l.848.617H18.34l-.325.998-.324-.998h-1.049l.85-.617-.326-.998.85.617.848-.617-.324.998zm-8.667 8.667l.849.617h-1.05l-.324.998-.324-.998h-1.05l.85-.617-.325-.998.849.617.849-.617-.324.998zm1.107 4.285l.849.617h-1.05l-.324.998-.324-.998H9.08l.85-.617-.325-.998.849.617.849-.617-.324.998zm0-8.618l.849.617h-1.05l-.324.998-.324-.998H9.08l.85-.617-.325-.998.849.617.849-.617-.324.997zm3.226 11.838l.849.617h-1.05l-.324.998-.324-.998h-1.05l.85-.617-.325-.998.849.617.849-.617-.324.998zm0-15.067l.849.617h-1.05l-.324.998-.324-.998h-1.05l.85-.617-.325-.998.849.617.849-.617-.324.998zm11.922 7.562l-.85.617h1.05l.325.998.324-.998h1.049l-.85-.617.326-.998-.85.617-.849-.617.324.998zm-1.108 4.285l-.849.617h1.05l.324.998.324-.998h1.05l-.85-.617.325-.998-.849.617-.849-.617.324.998zm0-8.618l-.849.617h1.05l.324.998.324-.998h1.05l-.85-.617.325-.998-.849.617-.849-.617.324.997zm-3.226 11.838l-.849.617h1.05l.324.998.324-.998h1.05l-.85-.617.325-.998-.849.617-.849-.617.324.998zm0-15.067l-.849.617h1.05l.324.998.324-.998h1.05l-.85-.617.325-.998-.849.617-.849-.617.324.998z" fill="#fc0"/></g></svg>