<svg xmlns="http://www.w3.org/2000/svg" viewBox="0 0 45 45"><defs><clipPath id="a"><path d="M0 36h36V0H0v36z"/></clipPath></defs><g clip-path="url(#a)" transform="matrix(1.25 0 0 -1.25 0 45)"><path d="M36 9a4 4 0 0 0-4-4H4a4 4 0 0 0-4 4v18a4 4 0 0 0 4 4h28a4 4 0 0 0 4-4V9z" fill="#29ae66"/><path d="M11 5H4v26h7V5z" fill="#ca3745"/><path d="M4 27.688l.805-.805-.219-.218.32-.321.211.21.664-.664-.656-.656-.273.273-.29-.289.243-.242-.805-.71v.374l.441.418-.238.191.608.608.351-.305.328.328-.351.352-.246-.246-.641.64.24.241-.492.445v.375zm0-4.625l.805-.805-.219-.218.32-.321.211.21.664-.664-.656-.656-.273.273-.29-.289.243-.242-.805-.71v.374l.441.418-.238.191.608.608.351-.305.328.328-.351.352-.246-.246-.641.64.24.241-.492.445v.375zm0-4.719l.805-.805-.219-.218.32-.321.211.21.664-.663-.656-.656-.273.273-.29-.29.243-.241L4 14.922v.375l.441.418-.238.19.608.609.351-.305.328.328-.351.352-.246-.246-.641.64.24.24L4 17.97v.375zm0-4.656l.805-.806-.219-.217.32-.321.211.21.664-.663-.656-.656-.273.273-.29-.29.243-.241L4 10.266v.375l.441.418-.238.19.608.609.351-.305.328.328-.351.352-.246-.246-.641.64.24.24-.492.446v.375zm7 14l-.805-.805.219-.218-.32-.321-.211.21-.664-.664.656-.656.273.273.29-.289-.243-.242.805-.71v.374l-.441.418.238.191-.608.608-.351-.305-.328.328.351.352.246-.246.641.64-.24.241.492.445v.375zm-6.437 2.625l.289.289.272-.273.657.656-.016.015h-.3l.025-.025-.328-.328-.352.305-.607-.608.238-.191-.44-.418v-.375l.803.71-.242.243zm6.234.031l-.607.607-.352-.304-.328.328.025.025h-.301l-.015-.015.656-.657.274.274.289-.29-.243-.241.805-.711v.375l-.441.418.238.19zM11 23.063l-.805-.805.219-.218-.32-.321-.211.21-.664-.664.656-.656.273.273.29-.289-.243-.242.805-.71v.374l-.441.418.238.191-.608.608-.351-.305-.328.328.351.352.246-.246.641.64-.24.241.492.445v.375zm0-4.719l-.805-.805.219-.218-.32-.321-.211.21-.664-.663.656-.656.273.273.29-.29-.243-.241.805-.711v.375l-.441.418.238.19-.608.609-.351-.305-.328.328.351.352.246-.246.641.64-.24.24.492.446v.375zm0-4.656l-.805-.806.219-.217-.32-.321-.211.21-.664-.663.656-.656.273.273.29-.29-.243-.241.805-.711v.375l-.441.418.238.19-.608.609-.351-.305-.328.328.351.352.246-.246.641.64-.24.24.492.446v.375z" fill="#faae29"/><path d="M10.021 29.063v.396l-.583.354H9l-.708.367H6.708L6 29.813h-.437l-.584-.354v-.396l-.541-.333v-.917l.541-.334v-.395l.584-.355H6l.708-.367h1.584l.708.367h.438l.583.355v.395l.542.334v.917l-.542.333z" fill="#29ae66"/><path d="M4.928 28.272v.391l.462.285v.337l.498.303h.373l.605.313h.675v-1.629H4.928z" fill="#faae29"/><path d="M4.887 28.27v-.39l.462-.285v-.337l.498-.303h.373l.605-.313H7.5v1.629H4.887zm5.226 0v.391l-.462.285v.337l-.498.303H8.78l-.604.313H7.5V28.27h2.613z" fill="#fff"/><path d="M10.113 28.27v-.39l-.462-.285v-.337l-.498-.303H8.78l-.604-.313H7.5v1.629h2.613zm-4.509-4.562h-.676v.73h.676v-.73zm.677.104h-.676v.73h.676v-.73zm.677.261h-.676v.729h.676v-.729zm2.458-.365h.676v.73h-.676v-.73zm-.677.104h.676v.73h-.676v-.73zm-.676.261h.676v.729h-.676v-.729zm0 .193H6.958v.901h1.105v-.901zm-2.459-.75h-.676v-.729h.676v.729zm.677-.104h-.676v-.729h.676v.729zm.677-.261h-.676v-.729h.676v.729zm2.458.365h.676v-.729h-.676v.729zm-.677-.104h.676v-.729h-.676v.729zm-.676-.261h.676v-.729h-.676v.729zm0-.193H6.958v-.901h1.105v.901z" fill="#faae29"/><path d="M8.55 11.392H6.49l-1.455-.932V9.144l1.455-.931h2.06l1.455.93v1.317l-1.456.932z" fill="#fff"/><path d="M9.12 18.418l-.938-.66H6.858l-.937.66v.934l.937.66h1.324l.937-.66v-.934zm-.737 1.936H6.657l-1.22-.86v-1.218l1.22-.86h1.726l1.221.86v1.218l-1.22.86zM9.652 9.237l-1.25-.799H6.637l-1.25.8v1.13l1.25.798h1.765l1.25-.799v-1.13zm-1.06 2.221H6.447l-1.517-.97V9.115l1.517-.97h2.145l1.517.97v1.371l-1.517.971zm.485 1.73H5.959v2.084h3.118v-2.084zm.677 1.375v.443h-.441v.493H5.719v-.493h-.494v-.443h-.433v-.647h.433v-.478h.494v-.522h3.594v.522h.441v.478h.517v.647h-.517z" fill="#29ae66"/><path d="M7.5 15.75l-1.896-1.125v-.729l1.896-1.23 1.916 1.188v.771L7.5 15.75z" fill="#29ae66"/><path d="M6.651 10.234l.85.49.847-.49v-.98L7.5 8.765l-.849.49v.98z" fill="#ca3745"/><path d="M8.348 5.916l-.244-.166s-.208.396-.77.437c-.563.041-.876-.187-1.355-.218-.479-.032-1.955 1.086-1.188 2.797.688-.495.331-1.099.645-1.391.314-.292.644-.49.772-.834s.726-.059 1.125-.125c.625-.104 1.015-.5 1.015-.5" fill="#faae29"/><path d="M6.651 5.916l.244-.166s.208.396.771.437c.562.041.875-.187 1.354-.218.48-.032 1.955 1.086 1.188 2.797-.688-.495-.33-1.099-.645-1.391-.314-.292-.644-.49-.772-.834s-.726-.059-1.125-.125c-.625-.104-1.015-.5-1.015-.5" fill="#faae29"/><path d="M18.18 27.711a3.058 3.058 0 0 0 1.07-2.316c0-1.7-1.378-3.078-3.078-3.078a3.05 3.05 0 0 0-1.591.455 3.105 3.105 0 0 1 2.294-1.018 3.119 3.119 0 1 1 1.305 5.957m-2.334.422l-.246-.483.383-.384-.535.085-.247-.483-.085.536-.536.084.484.247-.085.536.384-.384.483.246z" fill="#fff"/><path d="M17.377 27.205l-.246-.483.383-.384-.535.085-.247-.483-.084.536-.537.084.484.247-.085.536.384-.384.483.246zm-1.531-.665l-.246-.483.383-.384-.535.085-.247-.483-.085.535-.536.085.484.247-.085.536.384-.384.483.246zm-1.594-.81l-.246-.483.383-.384-.535.085-.247-.483-.084.536-.537.084.484.247-.085.536.384-.383.483.246zm1.594-.9l-.246-.484.383-.384-.535.085-.247-.483-.085.535-.536.085.484.247-.085.536.384-.384.483.246z" fill="#fff"/><path d="M7.062 15.23h.915v-.615h-.915v.615zm0-1.402h.915v-.615h-.915v.615z" fill="#ca3745"/><path d="M5.604 14.516h1.253v-.615H5.604v.615zm2.584 0h1.228v-.615H8.188v.615z" fill="#faae29"/></g></svg>