<svg xmlns="http://www.w3.org/2000/svg" viewBox="0 0 45 45"><defs><clipPath id="a"><path d="M0 36h36V0H0v36z"/></clipPath></defs><g clip-path="url(#a)" transform="matrix(1.25 0 0 -1.25 0 45)"><path d="M36 9a4 4 0 0 0-4-4H4a4 4 0 0 0-4 4v18a4 4 0 0 0 4 4h28a4 4 0 0 0 4-4V9z" fill="#eee"/><path d="M21.441 22.915a6 6 0 0 1-8.356-1.474A3 3 0 1 1 18 18a3 3 0 0 0 4.915-3.441 6 6 0 0 1-1.474 8.356" fill="#c60c30"/><path d="M22.178 18.736A3.001 3.001 0 0 1 18 18a3 3 0 1 0-4.914 3.441 5.998 5.998 0 0 1 1.473-8.356 5.998 5.998 0 0 1 8.356 1.473 3 3 0 0 1-.737 4.178" fill="#003478"/><path d="M26.264 12.725l-1.93-2.3.767-.641 1.929 2.298-.766.643zm.642.765l.766-.643 1.927 2.297-.765.644-1.928-2.298zm.889-2.052L25.867 9.14l.766-.643 1.928 2.297-.766.644zm.643.767l.766-.644 1.928 2.298-.766.643-1.929-2.297zm.889-2.053l-1.929-2.298.767-.642 1.93 2.297-.768.643zm.643.767l.767-.643 1.927 2.298-.765.643-1.93-2.298zm.766 14.806l-.766-.643 1.93-2.298.766.642-1.93 2.299zm-.642.765l-1.928 2.3-.765-.644 1.927-2.299.766.643zm.273-4.992l-4.5 5.362.767.643 4.5-5.362-.767-.643zM27.03 23.92l-1.93 2.298-.765-.644 1.927-2.298.766.644zm.642-.767l-.766-.644 1.929-2.296.767.642-1.93 2.298zM10.9 9.782l-4.5 5.363.765.643 4.5-5.362-.766-.644zm-3.338 2.422l-1.928 2.3-.766-.645 1.928-2.298.766.643zm.643-.766l-.766-.644 1.929-2.297.766.642-1.93 2.3zm-.37-4.226l-4.5 5.362.767.643 4.499-5.362-.766-.643zM8.6 28.146l-4.5-5.362-.766.642 4.5 5.363.766-.643zm1.533-1.286l-4.5-5.362-.766.642 4.499 5.363.767-.643zm1.531-1.285l-4.499-5.362-.767.643 4.5 5.362.766-.643z" fill="#292f33"/></g></svg>