<svg xmlns="http://www.w3.org/2000/svg" viewBox="0 0 45 45"><defs><clipPath id="a"><path d="M0 36h36V0H0v36z"/></clipPath></defs><g clip-path="url(#a)" transform="matrix(1.25 0 0 -1.25 0 45)"><path d="M36 9a4 4 0 0 0-4-4H4a4 4 0 0 0-4 4v18a4 4 0 0 0 4 4h28a4 4 0 0 0 4-4V9z" fill="#77b255"/><path d="M36 13H0v10h36V13z" fill="#dd2e44"/><path d="M32 31H4a4 4 0 0 1-4-4v-4h36v4a4 4 0 0 1-4 4" fill="#141414"/><path d="M23.191 24a5.992 5.992 0 1 1-10.383 0h10.383z" fill="#dd2e44"/><path d="M17.698 30h.603L18 27.837 17.7 30zm-1.514-.18l.595.102.067-2.183-.662 2.081zm-1.463-.433l.57.201.434-2.14-1.004 1.94zm-1.368-.673l.527.293.79-2.036-1.317 1.743zm-1.235-.895l.47.378 1.122-1.873-1.592 1.495zm-1.067-1.09l.4.453 1.422-1.658-1.822 1.204zm-.866-1.255l.318.513 1.68-1.393-1.998.88zM10.898 24l-1.13.65-.226-.559.365-.091h.99zm15.355 0l.218.054-.221.557L25.176 24h1.077zm-.73 1.951l.31-.512-2-.872 1.69 1.384zm-.943 1.199l.393-.453-1.826-1.197 1.432 1.65zm-1.133 1.022l.464-.38-1.597-1.487 1.133 1.867zm-1.287.816l.52-.296-1.323-1.736.802 2.032zm-1.409.588l.563-.204-1.01-1.934.447 2.138zm-1.487.341l.59-.106-.67-2.077.08 2.183z" fill="#dd2e44"/></g></svg>