<svg xmlns="http://www.w3.org/2000/svg" viewBox="0 0 45 45"><defs><clipPath id="a"><path d="M0 36h36V0H0v36z"/></clipPath></defs><g clip-path="url(#a)" transform="matrix(1.25 0 0 -1.25 0 45)"><path d="M35.445 29c-.693 1.191-1.968 2-3.445 2H18v-2h17.445zM0 9h36v2H0V9zm18 8h18v2H18v-2zm0 4h18v2H18v-2zM0 13h36v2H0v-2zm4-8h28c1.477 0 2.752.809 3.445 2H.555C1.248 5.809 2.523 5 4 5m14 20h18v2H18v-2z" fill="#b22334"/><path d="M.069 8.321a4.25 4.25 0 0 1 .058-.277 4.07 4.07 0 0 1 .092-.296 4.17 4.17 0 0 1 .333-.743L.554 7h34.892l.001.004c.135.233.243.483.332.741a3.29 3.29 0 0 1 .153.575c.04.221.068.446.068.68H0c0-.233.029-.458.069-.679M0 11h36v2H0v-2zm0 6v-2h36v2H0zm18 2h18v2H18v-2zm0 4h18v2H18v-2zM.555 29l-.002-.005c0 .002 0 .003.002.005zm-.427-1.044c.025.102.06.199.092.297a4.256 4.256 0 0 1-.092-.297M18 27h18c0 .233-.028.459-.069.68a3.602 3.602 0 0 1-.058.274c-.027.103-.06.203-.094.302a4.138 4.138 0 0 1-.334.744H18v-2z" fill="#eee"/><path d="M18 31H4a4 4 0 0 1-4-4V17h18v14z" fill="#3c3b6e"/><path d="M2.002 28.274l.618-.449-.237-.726.617.45.618-.45-.237.726.62.45h-.765L3 29l-.235-.726h-.764zm2-2l.618-.449-.237-.726.618.45.618-.45-.237.726.619.45h-.764L5 27l-.235-.726h-.764zm4 0l.617-.449-.236-.726.618.45.618-.45-.237.726.619.45h-.764L9 27l-.235-.726h-.764zm4 0l.617-.449-.236-.726.618.45.618-.45-.237.726.619.45h-.764L13 27l-.235-.726h-.764zm-8-4l.618-.449-.237-.726.618.45.618-.45-.237.726.619.45h-.764L5 23l-.235-.726h-.764zm4 0l.617-.449-.236-.726.618.45.618-.45-.237.726.619.45h-.764L9 23l-.235-.726h-.764zm4 0l.617-.449-.236-.726.618.45.618-.45-.237.726.619.45h-.764L13 23l-.235-.726h-.764zm-6 6l.618-.449-.237-.726.618.45.618-.45-.237.726.619.45h-.764L7 29l-.235-.726h-.764zm4 0l.617-.449-.236-.726.618.45.618-.45-.237.726.619.45h-.764L11 29l-.235-.726h-.764zm4 0l.617-.449-.236-.726.618.45.618-.45-.237.726.619.45h-.764L15 29l-.235-.726h-.764zm-12-4l.618-.449-.237-.726.617.45.618-.45-.237.726.62.45h-.765L3 25l-.235-.726h-.764zM6.383 23.1l.618.449.617-.45-.236.727.618.449h-.763L7 25l-.236-.725h-.763l.617-.45-.236-.725zm3.619 1.174l.617-.449-.236-.726.618.45.618-.45-.237.726.619.45h-.764L11 25l-.235-.726h-.764zm4 0l.617-.449-.236-.726.618.45.618-.45-.237.726.619.45h-.764L15 25l-.235-.726h-.764zm-12-4l.618-.449-.237-.726.617.45.618-.45-.237.726.62.45h-.765L3 21l-.235-.726h-.764zM6.383 19.1l.618.449.617-.45-.236.727.618.449h-.763L7 21l-.236-.725h-.763l.617-.45-.236-.725zm3.619 1.174l.617-.449-.236-.726.618.45.618-.45-.237.726.619.45h-.764L11 21l-.235-.726h-.764zm4 0l.617-.449-.236-.726.618.45.618-.45-.237.726.619.45h-.764L15 21l-.235-.726h-.764z" fill="#fff"/></g></svg>