<svg xmlns="http://www.w3.org/2000/svg" viewBox="0 0 45 45"><defs><clipPath id="a"><path d="M0 36h36V0H0v36z"/></clipPath></defs><g clip-path="url(#a)" transform="matrix(1.25 0 0 -1.25 0 45)"><path d="M36 4a4 4 0 0 0-4-4H4a4 4 0 0 0-4 4v28a4 4 0 0 0 4 4h28a4 4 0 0 0 4-4V4z" fill="#553788"/><path d="M32 36H19.244c-4.687-1.656.803-8.995-3.502-8.469-7.159.875-7.679-6.086-10.742-4.969-1.192.436-3.257 2.491-5 .991V4a4 4 0 0 1 4-4h1.624c1.469 1.279.927 5.622 1.709 6.75 2.834 4.084 3.695 7.482 7.901 7.189 7.125-.5 8.453 4.852 10.705 7.186C28.187 23.459 32 19.583 36 21.333V32a4 4 0 0 1-4 4" fill="#744eaa"/><path d="M36 4v2.966c-.77.84-1.917 1.784-2.583 1.7-1.276-.161-2.042-1.166-2.917-1.853-.875-.688-2.979-.272-4.667.853-1.687 1.125-3.998.106-5.127-.466-1.873-.95-2.498 1.883-4.373 3.133S11.625 7.5 10.5 6.75 8.037 7.93 7.225 8.492c-.813.563-1.892.487-3.392-.826C2.546 6.54 2.038 6.771 0 6.121V4a4 4 0 0 1 4-4h28a4 4 0 0 1 4 4" fill="#292f33"/><path d="M7.333 20.333a1.167 1.167 0 1 0-2.334 0 1.167 1.167 0 0 0 2.335 0m8.604 4.636a1.094 1.094 0 1 0-2.189 0 1.094 1.094 0 0 0 2.188 0m7.376 5.719a1.312 1.312 0 1 0-2.624 0 1.312 1.312 0 0 0 2.623 0m1.876-3.407a.78.78 0 1 0-1.562 0 .78.78 0 0 0 1.561 0M19.75 16.25a1 1 0 1 0-2 0 1 1 0 1 0 2 0m12.188-.672a.937.937 0 1 0-.936.937.937.937 0 0 0 .936-.937m.75 9.516a1.156 1.156 0 1 0-2.312 0 1.156 1.156 0 0 0 2.311 0" fill="#aa8dd8"/><path d="M22.281 12.273a.656.656 0 1 0-1.31-.001.656.656 0 0 0 1.31 0m-9.718 21.166a.812.812 0 1 0-1.624 0 .812.812 0 0 0 1.623 0m-6.956-3.376a.672.672 0 1 0-1.344 0 .672.672 0 0 0 1.344 0m23.113-20.07a.811.811 0 1 0-1.625 0 .81.81 0 0 0 .813.811.81.81 0 0 0 .812-.81m-21.851.51a.934.934 0 1 0-1.867 0 .934.934 0 0 0 1.867 0M11 17.219a1.469 1.469 0 1 0-2.938 0 1.469 1.469 0 0 0 2.938 0m9.35 3.981a1.675 1.675 0 1 0-3.35 0 1.675 1.675 0 0 0 3.35 0m8.338 10.331a.72.72 0 1 0-1.439 0 .72.72 0 0 0 1.439 0M34.313 33a1 1 0 1 0-2 0 1 1 0 0 0 2 0" fill="#cbb7ea"/><path d="M11.334 28.438a.896.896 0 1 0-1.792 0 .896.896 0 0 0 1.792 0m22.979-8.094a.78.78 0 1 0-1.562 0 .78.78 0 0 0 1.562 0m-8.625 2.125a.687.687 0 1 0-1.374 0 .687.687 0 0 0 1.373 0m-13.156-1.188a.594.594 0 1 0-1.188 0 .594.594 0 0 0 1.188 0M22.75 24.76a1.156 1.156 0 1 0-2.312 0 1.156 1.156 0 0 0 2.312 0m6.125 3.084a.97.97 0 1 0-1.938 0 .97.97 0 0 0 1.938 0m-12.641-9.93a1.336 1.336 0 1 0-2.671 0 1.336 1.336 0 0 0 2.671 0M2.633 11.871a.88.88 0 1 0-1.76.001.88.88 0 0 0 1.76 0M6 14.92a.648.648 0 1 0-1.297.002A.648.648 0 0 0 6 14.92m26.156 15.33a.811.811 0 1 0-1.625 0 .812.812 0 1 0 1.625 0" fill="#f5f8fa"/></g></svg>