<svg xmlns="http://www.w3.org/2000/svg" viewBox="0 0 45 45"><defs><clipPath id="a"><path d="M0 36h36V0H0v36z"/></clipPath></defs><path d="M12.885 11.25h-5.77l-.192 2.5h6.154l-.192-2.5zm-.385-5h-5l-.192 2.5h5.385l-.193-2.5zm.77 10H6.73l-.192 2.5h6.924l-.193-2.5zm-6.924 5L6.25 22.5h7.5l-.096-1.25H6.346zm19.424-5h-6.54l-.192 2.5h6.924l-.193-2.5zm-6.924 5l-.095 1.25h7.499l-.097-1.25h-7.307zm6.539-10h-5.77l-.192 2.5h6.154l-.192-2.5zm-.385-5h-5l-.192 2.5h5.385L25 6.25zm12.885 5h-5.77l-.192 2.5h6.154l-.192-2.5zm-6.539 10l-.096 1.25h7.5l-.097-1.25h-7.307zm6.924-5h-6.54l-.192 2.5h6.924l-.193-2.5zm-.77-10h-5l-.192 2.5h5.384l-.192-2.5z" fill="#be1931"/><path d="M13.077 13.75H6.923l-.192 2.5h6.538l-.192-2.5zm-.385-5H7.307l-.192 2.5h5.77l-.193-2.5zm-6.153 10l-.193 2.5h7.308l-.193-2.5H6.539zm19.038-5h-6.154l-.192 2.5h6.538l-.192-2.5zm-.385-5h-5.385l-.192 2.5h5.77l-.193-2.5zm-6.154 10l-.192 2.5h7.308l-.193-2.5h-6.922zm19.039-5h-6.154l-.192 2.5h6.538l-.192-2.5zm.385 5h-6.923l-.192 2.5h7.307l-.192-2.5zm-.77-10h-5.385l-.192 2.5h5.77l-.193-2.5z" fill="#e6e7e8"/><g clip-path="url(#a)" transform="matrix(1.25 0 0 -1.25 0 45)"><path d="M35 2a2 2 0 0 0-2-2H3a2 2 0 0 0-2 2v14a2 2 0 0 0 2 2h30a2 2 0 0 0 2-2V2z" fill="#a0041e"/><path d="M35 14H1v2h34v-2z" fill="#c1694f"/><path d="M10 8H6v4h4V8zm10 0h-4v4h4V8zm10 0h-4v4h4V8zM10 2H6v4h4V2zm10 0h-4v4h4V2zm10 0h-4v4h4V2z" fill="#aab8c2"/><path d="M9 36a2 2 0 0 1-2-2c0-.457.159-.873.417-1.209A.982.982 0 0 1 7 32a1 1 0 0 1 2 0 2 2 0 0 1 0 4m10 0a2 2 0 0 1-2-2c0-.457.159-.873.417-1.209A.982.982 0 0 1 17 32a1 1 0 0 1 2 0 2 2 0 0 1 0 4m10 0a2 2 0 0 1-2-2c0-.457.159-.873.417-1.209A.982.982 0 0 1 27 32a1 1 0 1 1 2 0 2 2 0 0 1 0 4" fill="#d1d3d4"/></g></svg>