<svg xmlns="http://www.w3.org/2000/svg" viewBox="0 0 45 45"><defs><clipPath id="a"><path d="M0 36h36V0H0v36z"/></clipPath></defs><g clip-path="url(#a)" transform="matrix(1.25 0 0 -1.25 0 45)"><path d="M25.776 31.291c1.333 0 6.833-1.333 6.833-7.749 0-6.418-6.26-15.73-8.625-15.959-2.583-.25-4.208 1.376-4.208 4 0 2.626 4.083 4.335 2.208 8.292-1.875 3.958-2.333 11.416 3.792 11.416m7.081-2.231c-.432-.733-.323-1.598.242-1.93.566-.333 1.374-.007 1.805.727.432.734.323 1.599-.242 1.93-.566.334-1.374.007-1.805-.727m-2.902 2.862c-.117-.843.342-1.604 1.025-1.699.684-.095 1.334.511 1.452 1.354.117.844-.342 1.604-1.026 1.7-.683.095-1.334-.51-1.45-1.355m-3.222 1.37c0-.921.598-1.667 1.334-1.667.736 0 1.333.746 1.333 1.667 0 .92-.597 1.667-1.333 1.667s-1.334-.747-1.334-1.667m-3.791.688c0-1.024.635-1.854 1.416-1.854.783 0 1.417.83 1.417 1.854s-.634 1.854-1.417 1.854c-.78 0-1.416-.83-1.416-1.855m-5.307-2.156c.378-1.46 1.605-2.405 2.74-2.111 1.138.294 1.752 1.715 1.374 3.174-.377 1.459-1.603 2.405-2.74 2.11-1.137-.293-1.751-1.715-1.374-3.173m-7.719-7.532c-1.333 0-6.833-1.333-6.833-7.749 0-6.418 6.261-15.73 8.625-15.96 2.583-.25 4.208 1.375 4.208 4.002 0 2.625-4.083 4.333-2.208 8.29 1.875 3.96 2.333 11.417-3.792 11.417M2.836 22.06c.432-.733.323-1.598-.242-1.93-.566-.333-1.375-.007-1.805.727-.432.734-.324 1.598.241 1.93.566.334 1.375.007 1.806-.727m2.902 2.862c.117-.843-.342-1.604-1.025-1.699-.684-.095-1.334.511-1.452 1.354-.117.844.342 1.604 1.026 1.7.684.095 1.333-.51 1.451-1.355m3.221 1.37c0-.921-.597-1.667-1.333-1.667-.737 0-1.334.746-1.334 1.667 0 .92.597 1.667 1.334 1.667.736 0 1.333-.747 1.333-1.667m3.791.688c0-1.024-.634-1.854-1.417-1.854-.782 0-1.416.83-1.416 1.854s.634 1.854 1.416 1.854c.783 0 1.417-.83 1.417-1.854m5.308-2.157c-.377-1.46-1.605-2.405-2.741-2.111-1.136.294-1.751 1.715-1.374 3.174.377 1.459 1.604 2.405 2.74 2.11 1.137-.293 1.752-1.715 1.375-3.173" fill="#662113"/></g></svg>