<svg xmlns="http://www.w3.org/2000/svg" viewBox="0 0 45 45"><defs><clipPath id="a"><path d="M0 36h36V0H0v36z"/></clipPath></defs><g clip-path="url(#a)" transform="matrix(1.25 0 0 -1.25 0 45)"><path d="M20 30a2 2 0 0 0-4 0v4a2 2 0 0 0 4 0v-4zm0-28a2 2 0 1 0-4 0v4a2 2 0 0 0 4 0V2zM6 20a2 2 0 0 0 0-4H2a2 2 0 0 0 0 4h4zm28 0a2 2 0 1 0 0-4h-4a2 2 0 0 0 0 4h4zM8.1 10.929A2 2 0 0 0 10.93 8.1L8.1 5.27A2 2 0 1 0 5.273 8.1L8.1 10.93zm19.8 19.798a1.999 1.999 0 1 0 2.827-2.828L27.9 25.072a1.999 1.999 0 1 0-2.828 2.828l2.828 2.828zM25.071 8.1a2 2 0 0 0 2.829 2.83l2.83-2.83a2 2 0 1 0-2.83-2.827L25.07 8.1zM18 13a5 5 0 1 0 0 10 5 5 0 0 0 0-10m0 14a9 9 0 1 1 0-18 9 9 0 0 1 0 18m-12.728.9a1.999 1.999 0 1 0 2.829 2.827l2.827-2.828A1.999 1.999 0 1 0 8.1 25.071L5.272 27.9z" fill="#ffac33"/></g></svg>