<svg xmlns="http://www.w3.org/2000/svg" viewBox="0 0 45 45"><defs><clipPath id="a"><path d="M0 36h36V0H0v36z"/></clipPath></defs><g clip-path="url(#a)" transform="matrix(1.25 0 0 -1.25 0 45)"><path d="M36 4a4 4 0 0 0-4-4H4a4 4 0 0 0-4 4v28a4 4 0 0 0 4 4h28a4 4 0 0 0 4-4V4z" fill="#9266cc"/><path d="M33.25 24h-2c0-7-5.411-12.687-12.25-13.202v1.563C24.977 12.871 29.687 18 29.687 24h-1.999c0-5-3.814-9.136-8.688-9.638v1.578c4.009.496 7.125 4.06 7.125 8.06h-2c0-3-2.223-5.559-5.125-6.039v1.562c2.051.459 3.592 2.477 3.592 4.477h-2c0-1-.658-2-1.592-2.392V25h-2v-3.392C16.066 22 15.409 23 15.409 24h-2c0-2 1.54-4.018 3.591-4.477v-1.562c-2.902.48-5.125 3.039-5.125 6.039h-2c0-4 3.116-7.564 7.125-8.06v-1.578C12.126 14.864 8.313 19 8.313 24h-2c0-6 4.71-11.129 10.687-11.639v-1.563C10.161 11.313 4.75 17 4.75 24h-2C2.75 16 9.058 9.317 17 8.798V7h-3a2 2 0 0 1-2-2h-2a1 1 0 1 1 0-2h16a1 1 0 1 1 0 2h-2a2 2 0 0 1-2 2h-3v1.798C26.943 9.317 33.25 16 33.25 24m-1 6.948c-.303 0-.886-1.582-.985-3.918A.99.99 0 0 1 32.25 26a.99.99 0 0 1 .985 1.03c-.099 2.336-.682 3.918-.985 3.918m-3.562 0c-.303 0-.886-1.582-.985-3.918a.99.99 0 0 1 .985-1.03.99.99 0 0 1 .985 1.03c-.1 2.336-.682 3.918-.985 3.918m-3.563 0c-.303 0-.886-1.582-.985-3.918a.99.99 0 0 1 .985-1.03.99.99 0 0 1 .985 1.03c-.099 2.336-.682 3.918-.985 3.918m-3.562 0c-.303 0-.886-1.582-.985-3.918a.99.99 0 0 1 .985-1.03.99.99 0 0 1 .985 1.03c-.1 2.336-.682 3.918-.985 3.918M18 31.949c-.303 0-.886-1.582-.985-3.918A.99.99 0 0 1 18 27a.99.99 0 0 1 .985 1.03c-.099 2.336-.682 3.918-.985 3.918m-3.562-1c-.304 0-.887-1.582-.986-3.918a.99.99 0 0 1 .986-1.03.99.99 0 0 1 .984 1.03c-.099 2.336-.682 3.918-.985 3.918m-3.562 0c-.303 0-.886-1.582-.985-3.918a.99.99 0 0 1 .985-1.03.99.99 0 0 1 .985 1.03c-.099 2.336-.682 3.918-.985 3.918m-3.562 0c-.303 0-.886-1.582-.985-3.918A.99.99 0 0 1 7.311 26a.99.99 0 0 1 .985 1.03c-.099 2.336-.682 3.918-.985 3.918m-3.561 0c-.303 0-.886-1.582-.985-3.918A.99.99 0 0 1 3.75 26a.99.99 0 0 1 .985 1.03c-.099 2.336-.682 3.918-.985 3.918" fill="#fff"/></g></svg>