<svg xmlns="http://www.w3.org/2000/svg" viewBox="0 0 45 45"><defs><clipPath id="a"><path d="M0 36h36V0H0v36z"/></clipPath></defs><g clip-path="url(#a)" transform="matrix(1.25 0 0 -1.25 0 45)"><path d="M25.362 17.487l-.372.52-.162.134-4.001-.016-4.097 11.919a1.98 1.98 0 0 1-.586-2.187l1.72-4.727-.004-.146 1.718-4.89-3.422.015-.222-.311c-.083-.031-.62-.313-.773-.44-.117-.097-.161-.136-.161-.136s-1.125-.534-1.125-2.407c.044-.678.393-1.534.719-1.774-.36-.572-.996-.916-1.594-.916-1.104 0-1.906.77-1.906 1.875l.295 7.176a2.336 2.336 0 0 1-1.39-2.133v-.96l-.108-.005v-4.161C9.735 12 7.916 12.094 7.916 12.094c-1.058 0-1.916.764-1.916 1.823V12c0-.094.015-.185.028-.276.515-.444 1.177-.818 1.91-.818 0 0 1.609-.093 2.575 1.266.123-.183 1.003-1.281 2.487-1.281 1.688 0 2.528 1.405 2.527 1.406.2-.115.473-.375 1.473-.375h2.297C17.266 10.188 16.422 7.394 16.422 5c0-.276.302-.562.578-.562.277 0 .578.286.578.562 0 2.548.899 4.642 2.299 5.89 1.139 1.016 2.623 1.032 2.623 1.032.277 0 .578.302.578.578 0 .276-.301.578-.578.578H17c-1.104 0-1.906.818-1.906 1.922 0 1.105.802 1.906 1.906 1.906l8 .016c.766 0 1.519-.634 1.543-.664a3.402 3.402 0 0 1-1.181 1.229m-5.03 13.148l.628 1.165h.135l2.034-5.605-.002-.292-.513-1.366h-.072l-2.21 5.994v.104z" fill="#ef9645"/><path d="M17 18c-.703 0-1.066-.202-1.066-.202l1.93 5.331L19.731 18H17zm-9.084 2h.168A1.916 1.916 0 0 0 10 18.083v-4.166A1.916 1.916 0 0 0 8.084 12h-.168A1.916 1.916 0 0 0 6 13.917v4.166C6 19.142 6.857 20 7.916 20m6.918-2.96A2.947 2.947 0 0 1 14 15c0-.063.013-.123.017-.185a2.981 2.981 0 0 1 .728-1.774 2.041 2.041 0 0 0-.259-.353A1.967 1.967 0 0 0 13 12a2 2 0 0 0-2 2v6c0 .44.147.845.39 1.176.362.497.946.824 1.61.824a2 2 0 0 0 2-2v-2.778c-.06-.055-.11-.122-.166-.182" fill="#ffdc5d"/><path d="M8.063 11a2.93 2.93 0 0 1 2.45 1.322c.122-.182.27-.345.43-.497.05-.046.102-.085.155-.128a3.057 3.057 0 0 1 .578-.377c.14-.069.285-.125.436-.172.067-.02.131-.045.2-.061.222-.053.45-.087.687-.087.237 0 .461.036.681.089.076.017.15.042.223.066.136.044.268.099.395.161.082.04.163.077.241.124.164.1.318.213.46.341.042.039.071.09.111.13.152.152.303.306.42.488l-.003.003c.2-.115.472-.402 1.473-.402h2.537a6.35 6.35 0 0 1-1.024-1C17.285 9.533 16.5 7.394 16.5 5a.5.5 0 1 1 1 0c0 2.548.956 4.775 2.377 6 .731.631 1.584 1 2.498 1h.125a.5.5 0 0 1 0 1H17a2 2 0 1 0 0 4h8c.032 0 .062-.008.094-.01a1.754 1.754 0 0 0 .398-.058 2.002 2.002 0 0 0 .693-.329 2.024 2.024 0 0 0 .282-.254c.027-.029.051-.061.076-.091l.052-.063a1.859 1.859 0 0 0 .2-.327 2.3 2.3 0 0 0 .08-.19c.01-.031.027-.06.038-.093L28 12c.103-.335.48-1.871.411-2.191C28.41 5 23.714 0 18 0 11.462 0 6.156 5.231 6.013 11.734l.014-.01A2.91 2.91 0 0 1 7.937 11h.125zm13.163 21.293a1.993 1.993 0 0 0 2.468.998 2 2 0 0 0 1.196-2.563v-.001l-1.762-4.821v-.003L20.96 31.8l.266.493zM25.001 18l-2.388 6.537-2.07 5.688a1.958 1.958 0 0 1-.21.41 1.997 1.997 0 0 1-3.549-1.778L20.734 18H25z" fill="#ffdc5d"/></g></svg>