<svg xmlns="http://www.w3.org/2000/svg" viewBox="0 0 45 45"><defs><clipPath id="a"><path d="M0 36h36V0H0v36z"/></clipPath></defs><g clip-path="url(#a)" transform="matrix(1.25 0 0 -1.25 0 45)"><path d="M8.916 12.11s1.737-.11 1.94 1.807l.016 4.161.128.005v.96c0 .952.572 1.768 1.389 2.132-.242-.33-.283-7.175-.283-7.175 0-1.105.789-1.89 1.894-1.89.755 0 1.265.313 1.606.931a2.963 2.963 0 0 0-.734 1.96c0 1.311.781 2.14 1.128 2.22 0 0 .056.07.082.084.368.306.804.535 1.291.635l.02-.002.26.155h6.928c1.307 0 1.558-.486 1.538-.475l.02-.01a3.401 3.401 0 0 0 1.404-1.35c-.025.03-.68.632-1.543.632-.863 0-8 .047-8 .047-1.105 0-1.925-.833-1.925-1.937 0-1.105.82-1.922 1.925-1.922l5.5.015c.276 0 .591-.317.591-.593 0-.277-.315-.578-.591-.578 0 0-1.558.07-2.847-1.25C19.444 9.434 18.575 6.868 18.575 5c0-.277-.299-.578-.575-.578-.276 0-.581.301-.581.578 0 3.01.941 5.525 2.75 6.89H18c-1 0-1.273.244-1.474.36.001 0-.701-1.36-2.526-1.36-.237 0-1.628.047-2.487 1.266-1.125-1.422-2.576-1.266-2.576-1.266-.733 0-1.565.328-1.909.834-.013.091-.028.181-.028.276v1.917c0-1.059.857-1.808 1.916-1.808" fill="#aa8052"/><path d="M24.581 18H18a3.05 3.05 0 0 1-.608-.061l-.073.278-3.272 12.464s-.416 1.957 1.54 2.372c1.956.416 2.372-1.54 2.372-1.54l3.097-11.569a26.6 26.6 0 0 0 1.305-.107l2.061 10.512s.188 1.991 2.18 1.804c1.991-.188 1.803-2.179 1.803-2.179L26.34 18.813l-.22-1.194a3.39 3.39 0 0 1-1.54.381M8.916 20h.168A1.916 1.916 0 0 0 11 18.083v-4.166A1.916 1.916 0 0 0 9.084 12h-.168A1.916 1.916 0 0 0 7 13.917v4.166C7 19.142 7.857 20 8.916 20M15 15c0-.753.287-1.433.745-1.959A1.994 1.994 0 0 0 14 12a2 2 0 0 0-2 2v6c0 .441.147.845.389 1.176.364.497.947.824 1.611.824a2 2 0 0 0 2-2v-2.778A2.982 2.982 0 0 1 15 15" fill="#d5ab88"/><path d="M9.063 11a2.93 2.93 0 0 1 2.45 1.322c.122-.182.27-.345.43-.497.05-.046.102-.085.155-.128a3.057 3.057 0 0 1 .578-.377c.14-.069.285-.125.436-.172.067-.02.131-.045.2-.061.222-.053.45-.087.687-.087.237 0 .461.036.681.089.076.017.15.042.223.066.136.044.268.099.395.161.082.04.163.077.241.124a3.077 3.077 0 0 1 .99.959l-.003.003C16.727 12.287 17 12 18 12h2.537C18.728 10.635 17.5 8.01 17.5 5a.5.5 0 1 1 1 0c0 3.859 2.187 7 4.875 7h.125a.5.5 0 0 1 0 1H18a2 2 0 1 0 0 4h8c.032 0 .062-.008.094-.01a1.754 1.754 0 0 0 .398-.058 2.002 2.002 0 0 0 .693-.329 2.024 2.024 0 0 0 .282-.254c.027-.029.051-.061.076-.091l.052-.063a1.859 1.859 0 0 0 .2-.327 2.3 2.3 0 0 0 .08-.19c.01-.031.027-.06.038-.093L29 12c.103-.335.48-1.871.411-2.191C29.41 5 24.714 0 19 0 12.462 0 7.156 5.231 7.013 11.734l.014-.01A2.91 2.91 0 0 1 8.937 11h.125z" fill="#d5ab88"/></g></svg>